<svg width="30" height="30" viewBox="0 0 30 30" fill="none" xmlns="http://www.w3.org/2000/svg">
<path d="M11.5 13.25V15.75H9V13.25H11.5ZM16.5 13.25V15.75H14V13.25H16.5ZM21.5 13.25V15.75H19V13.25H21.5ZM24 4.5C24.663 4.5 25.2989 4.76339 25.7678 5.23223C26.2366 5.70107 26.5 6.33696 26.5 7V24.5C26.5 25.163 26.2366 25.7989 25.7678 26.2678C25.2989 26.7366 24.663 27 24 27H6.5C5.1125 27 4 25.875 4 24.5V7C4 6.33696 4.26339 5.70107 4.73223 5.23223C5.20107 4.76339 5.83696 4.5 6.5 4.5H7.75V2H10.25V4.5H20.25V2H22.75V4.5H24ZM24 24.5V10.75H6.5V24.5H24ZM11.5 18.25V20.75H9V18.25H11.5ZM16.5 18.25V20.75H14V18.25H16.5ZM21.5 18.25V20.75H19V18.25H21.5Z" fill="white"/>
</svg>
