<svg width="10" height="8" viewBox="0 0 10 8" fill="none" xmlns="http://www.w3.org/2000/svg">
<path d="M8.92318 7.19464C9.09401 6.68859 9.89618 1.64275 9.9947 0.648181C10.0247 0.347242 9.92578 0.147024 9.73295 0.0573127C9.49911 -0.0507483 9.15321 0.00307795 8.75107 0.142946C8.20009 0.334601 1.15737 3.21799 0.750575 3.38518C0.364927 3.5434 0 3.71548 0 3.96545C0 4.1412 0.108252 4.23988 0.405945 4.34224C0.715478 4.44867 1.49565 4.67661 1.95699 4.79936C2.401 4.91761 2.90547 4.81485 3.18878 4.64521C3.48859 4.46538 6.95265 2.23077 7.20087 2.03462C7.44909 1.83889 7.64741 2.08967 7.44444 2.28582C7.24147 2.48155 4.86415 4.70679 4.55039 5.01507C4.16939 5.389 4.4396 5.7768 4.69543 5.93216C4.98678 6.10954 7.08416 7.46581 7.40004 7.68356C7.71591 7.90132 8.03602 8 8.32948 8C8.62295 7.99959 8.77729 7.62688 8.92318 7.19464Z" fill="white"/>
</svg>
